<svg width="216" height="27" viewBox="0 0 216 27" fill="none" xmlns="http://www.w3.org/2000/svg">
<path d="M9.40022 21.1741C12.5336 21.1741 14.9707 20.5164 16.2666 18.6016L16.9823 21H20.0383V13.3019H10.3093V15.8744H15.3769C15.1061 17.2476 13.6361 17.944 10.5027 17.944C6.94378 17.944 5.00958 17.0155 5.00958 14.4237C5.00958 11.8319 7.11786 10.9035 10.3286 10.9035C13.6168 10.9035 14.9127 11.5998 15.2608 12.5089H20.019C19.7675 8.79519 15.1448 7.67335 10.3286 7.67335C5.74458 7.67335 0.406182 8.93059 0.406182 14.4237C0.406182 19.9168 5.06761 21.1741 9.40022 21.1741ZM32.6786 21.1741C35.812 21.1741 38.2491 20.5164 39.545 18.6016L40.2607 21H43.3167V13.3019H33.5877V15.8744H38.6553C38.3845 17.2476 36.9145 17.944 33.7811 17.944C30.2222 17.944 28.288 17.0155 28.288 14.4237C28.288 11.8319 30.3963 10.9035 33.607 10.9035C36.8952 10.9035 38.1911 11.5998 38.5393 12.5089H43.2974C43.0459 8.79519 38.4232 7.67335 33.607 7.67335C29.023 7.67335 23.6846 8.93059 23.6846 14.4237C23.6846 19.9168 28.346 21.1741 32.6786 21.1741ZM47.3967 21H52.0001V16.1258H57.8801C59.5628 16.1258 60.0464 16.5707 60.0464 17.7312V19.472C60.0464 20.2457 60.1237 20.8066 60.2011 21H64.9979V20.7292C64.7271 20.5164 64.6498 20.265 64.6498 19.8008V17.4024C64.6498 15.7003 63.4312 15.062 61.2649 14.946H61.2262C63.4506 14.6171 64.6884 13.7467 64.6884 11.6578C64.6884 8.71782 62.3094 7.84743 58.1895 7.84743H47.3967V21ZM52.0001 13.2245V11.0775H57.8414C59.3307 11.0775 60.1044 11.271 60.1044 12.1607C60.1044 13.0311 59.3307 13.2245 57.8414 13.2245H52.0001Z" fill="black"/>
<path d="M16.2666 18.6016L16.3611 18.5734L16.3016 18.3741L16.185 18.5463L16.2666 18.6016ZM16.9823 21L16.8878 21.0282L16.9088 21.0986H16.9823V21ZM20.0383 21V21.0986H20.1369V21H20.0383ZM20.0383 13.3019H20.1369V13.2033H20.0383V13.3019ZM10.3093 13.3019V13.2033H10.2107V13.3019H10.3093ZM10.3093 15.8744H10.2107V15.9729H10.3093V15.8744ZM15.3769 15.8744L15.4736 15.8934L15.4968 15.7758H15.3769V15.8744ZM15.2608 12.5089L15.1688 12.5441L15.1931 12.6074H15.2608V12.5089ZM20.019 12.5089V12.6074H20.1244L20.1173 12.5022L20.019 12.5089ZM9.40022 21.2726C12.5402 21.2726 15.0231 20.6149 16.3483 18.6568L16.185 18.5463C14.9183 20.418 12.527 21.0755 9.40022 21.0755V21.2726ZM16.1722 18.6298L16.8878 21.0282L17.0767 20.9718L16.3611 18.5734L16.1722 18.6298ZM16.9823 21.0986H20.0383V20.9014H16.9823V21.0986ZM20.1369 21V13.3019H19.9398V21H20.1369ZM20.0383 13.2033H10.3093V13.4004H20.0383V13.2033ZM10.2107 13.3019V15.8744H10.4079V13.3019H10.2107ZM10.3093 15.9729H15.3769V15.7758H10.3093V15.9729ZM15.2802 15.8553C15.1521 16.5048 14.7428 16.9986 13.9739 17.3338C13.1994 17.6714 12.0647 17.8454 10.5027 17.8454V18.0425C12.0741 18.0425 13.2411 17.8683 14.0527 17.5145C14.8699 17.1582 15.3309 16.6173 15.4736 15.8934L15.2802 15.8553ZM10.5027 17.8454C8.72775 17.8454 7.37691 17.6131 6.47219 17.0712C5.57757 16.5354 5.10814 15.69 5.10814 14.4237H4.91102C4.91102 15.7493 5.4087 16.664 6.3709 17.2403C7.32302 17.8106 8.71875 18.0425 10.5027 18.0425V17.8454ZM5.10814 14.4237C5.10814 13.1604 5.61876 12.3134 6.51571 11.7762C7.42118 11.2339 8.72934 11.002 10.3286 11.002V10.8049C8.71716 10.8049 7.36579 11.0373 6.41442 11.6071C5.45454 12.182 4.91102 13.0952 4.91102 14.4237H5.10814ZM10.3286 11.002C11.9675 11.002 13.1002 11.1758 13.8631 11.4577C14.6241 11.739 15.0079 12.124 15.1688 12.5441L15.3529 12.4736C15.1656 11.9846 14.7274 11.567 13.9314 11.2728C13.1372 10.9793 11.9779 10.8049 10.3286 10.8049V11.002ZM15.2608 12.6074H20.019V12.4103H15.2608V12.6074ZM20.1173 12.5022C19.9882 10.5949 18.733 9.36064 16.9235 8.60749C15.1167 7.8555 12.7419 7.57479 10.3286 7.57479V7.77192C12.7316 7.77192 15.0761 8.05213 16.8477 8.78948C18.6165 9.52566 19.7983 10.7091 19.9206 12.5155L20.1173 12.5022ZM10.3286 7.57479C8.0307 7.57479 5.53113 7.8894 3.60259 8.90133C2.63696 9.40802 1.81215 10.0908 1.22901 10.9983C0.645568 11.9063 0.30762 13.0337 0.30762 14.4237H0.504745C0.504745 13.0671 0.834096 11.9775 1.39485 11.1048C1.95592 10.2317 2.75221 9.57016 3.69418 9.07589C5.58085 8.08592 8.04251 7.77192 10.3286 7.77192V7.57479ZM0.30762 14.4237C0.30762 17.2046 1.49092 18.9249 3.22861 19.9438C4.95807 20.958 7.22764 21.2726 9.40022 21.2726V21.0755C7.24019 21.0755 5.01273 20.7615 3.32833 19.7738C1.65215 18.7909 0.504745 17.136 0.504745 14.4237H0.30762ZM39.545 18.6016L39.6395 18.5734L39.58 18.3741L39.4634 18.5463L39.545 18.6016ZM40.2607 21L40.1662 21.0282L40.1873 21.0986H40.2607V21ZM43.3167 21V21.0986H43.4153V21H43.3167ZM43.3167 13.3019H43.4153V13.2033H43.3167V13.3019ZM33.5877 13.3019V13.2033H33.4891V13.3019H33.5877ZM33.5877 15.8744H33.4891V15.9729H33.5877V15.8744ZM38.6553 15.8744L38.752 15.8934L38.7752 15.7758H38.6553V15.8744ZM38.5393 12.5089L38.4472 12.5441L38.4715 12.6074H38.5393V12.5089ZM43.2974 12.5089V12.6074H43.4029L43.3957 12.5022L43.2974 12.5089ZM32.6786 21.2726C35.8187 21.2726 38.3015 20.6149 39.6267 18.6568L39.4634 18.5463C38.1968 20.418 35.8054 21.0755 32.6786 21.0755V21.2726ZM39.4506 18.6298L40.1662 21.0282L40.3551 20.9718L39.6395 18.5734L39.4506 18.6298ZM40.2607 21.0986H43.3167V20.9014H40.2607V21.0986ZM43.4153 21V13.3019H43.2182V21H43.4153ZM43.3167 13.2033H33.5877V13.4004H43.3167V13.2033ZM33.4891 13.3019V15.8744H33.6863V13.3019H33.4891ZM33.5877 15.9729H38.6553V15.7758H33.5877V15.9729ZM38.5586 15.8553C38.4305 16.5048 38.0212 16.9986 37.2523 17.3338C36.4778 17.6714 35.3431 17.8454 33.7811 17.8454V18.0425C35.3526 18.0425 36.5195 17.8683 37.3311 17.5145C38.1483 17.1582 38.6093 16.6173 38.752 15.8934L38.5586 15.8553ZM33.7811 17.8454C32.0062 17.8454 30.6553 17.6131 29.7506 17.0712C28.856 16.5354 28.3866 15.69 28.3866 14.4237H28.1894C28.1894 15.7493 28.6871 16.664 29.6493 17.2403C30.6014 17.8106 31.9972 18.0425 33.7811 18.0425V17.8454ZM28.3866 14.4237C28.3866 13.1604 28.8972 12.3134 29.7941 11.7762C30.6996 11.2339 32.0078 11.002 33.607 11.002V10.8049C31.9956 10.8049 30.6442 11.0373 29.6928 11.6071C28.733 12.182 28.1894 13.0952 28.1894 14.4237H28.3866ZM33.607 11.002C35.2459 11.002 36.3786 11.1758 37.1415 11.4577C37.9025 11.739 38.2863 12.124 38.4472 12.5441L38.6313 12.4736C38.444 11.9846 38.0058 11.567 37.2098 11.2728C36.4156 10.9793 35.2564 10.8049 33.607 10.8049V11.002ZM38.5393 12.6074H43.2974V12.4103H38.5393V12.6074ZM43.3957 12.5022C43.2666 10.5949 42.0114 9.36064 40.2019 8.60749C38.3951 7.8555 36.0203 7.57479 33.607 7.57479V7.77192C36.01 7.77192 38.3546 8.05213 40.1261 8.78948C41.8949 9.52566 43.0768 10.7091 43.1991 12.5155L43.3957 12.5022ZM33.607 7.57479C31.3091 7.57479 28.8095 7.8894 26.881 8.90133C25.9154 9.40802 25.0906 10.0908 24.5074 10.9983C23.924 11.9063 23.586 13.0337 23.586 14.4237H23.7832C23.7832 13.0671 24.1125 11.9775 24.6733 11.1048C25.2343 10.2317 26.0306 9.57016 26.9726 9.07589C28.8593 8.08592 31.3209 7.77192 33.607 7.77192V7.57479ZM23.586 14.4237C23.586 17.2046 24.7693 18.9249 26.507 19.9438C28.2365 20.958 30.506 21.2726 32.6786 21.2726V21.0755C30.5186 21.0755 28.2911 20.7615 26.6067 19.7738C24.9306 18.7909 23.7832 17.136 23.7832 14.4237H23.586ZM47.3967 21H47.2981V21.0986H47.3967V21ZM52.0001 21V21.0986H52.0987V21H52.0001ZM52.0001 16.1258V16.0273H51.9015V16.1258H52.0001ZM60.2011 21L60.1096 21.0366L60.1344 21.0986H60.2011V21ZM64.9979 21V21.0986H65.0965V21H64.9979ZM64.9979 20.7292H65.0965V20.6813L65.0588 20.6517L64.9979 20.7292ZM61.2649 14.946L61.2702 14.8474H61.2649V14.946ZM61.2262 14.946L61.2118 14.8484L61.2262 15.0445V14.946ZM47.3967 7.84743V7.74887H47.2981V7.84743H47.3967ZM52.0001 13.2245H51.9015V13.3231H52.0001V13.2245ZM52.0001 11.0775V10.979H51.9015V11.0775H52.0001ZM47.3967 21.0986H52.0001V20.9014H47.3967V21.0986ZM52.0987 21V16.1258H51.9015V21H52.0987ZM52.0001 16.2244H57.8801V16.0273H52.0001V16.2244ZM57.8801 16.2244C58.7192 16.2244 59.2308 16.3367 59.5339 16.5713C59.8289 16.7995 59.9478 17.1618 59.9478 17.7312H60.1449C60.1449 17.1401 60.0221 16.6997 59.6546 16.4154C59.2952 16.1373 58.7237 16.0273 57.8801 16.0273V16.2244ZM59.9478 17.7312V19.472H60.1449V17.7312H59.9478ZM59.9478 19.472C59.9478 19.8619 59.9673 20.1992 59.9968 20.4645C60.0259 20.7265 60.0656 20.9266 60.1096 21.0366L60.2926 20.9634C60.2593 20.88 60.2216 20.7029 60.1927 20.4427C60.1641 20.1857 60.1449 19.8557 60.1449 19.472H59.9478ZM60.2011 21.0986H64.9979V20.9014H60.2011V21.0986ZM65.0965 21V20.7292H64.8994V21H65.0965ZM65.0588 20.6517C64.9362 20.5554 64.8612 20.454 64.815 20.3259C64.7676 20.1944 64.7483 20.029 64.7483 19.8008H64.5512C64.5512 20.0368 64.5706 20.2292 64.6296 20.3927C64.6897 20.5596 64.7888 20.6903 64.937 20.8067L65.0588 20.6517ZM64.7483 19.8008V17.4024H64.5512V19.8008H64.7483ZM64.7483 17.4024C64.7483 16.5235 64.4312 15.9054 63.8247 15.4976C63.2266 15.0955 62.3583 14.9058 61.2702 14.8475L61.2596 15.0444C62.3379 15.1021 63.162 15.2896 63.7147 15.6612C64.259 16.0271 64.5512 16.5792 64.5512 17.4024H64.7483ZM61.2649 14.8474H61.2262V15.0445H61.2649V14.8474ZM61.2406 15.0435C62.3598 14.878 63.248 14.5743 63.8568 14.0357C64.4701 13.4931 64.787 12.7236 64.787 11.6578H64.5899C64.5899 12.681 64.2878 13.3912 63.7262 13.8881C63.1599 14.3891 62.3169 14.6851 61.2118 14.8484L61.2406 15.0435ZM64.787 11.6578C64.787 10.9094 64.6355 10.2858 64.3376 9.77264C64.0394 9.2591 63.5984 8.86266 63.0299 8.56294C61.8976 7.96593 60.252 7.74887 58.1895 7.74887V7.946C60.2469 7.946 61.8508 8.16413 62.938 8.73731C63.4792 9.02269 63.8904 9.39509 64.1671 9.87162C64.444 10.3485 64.5899 10.9362 64.5899 11.6578H64.787ZM58.1895 7.74887H47.3967V7.946H58.1895V7.74887ZM47.2981 7.84743V21H47.4953V7.84743H47.2981ZM52.0987 13.2245V11.0775H51.9015V13.2245H52.0987ZM52.0001 11.1761H57.8414V10.979H52.0001V11.1761ZM57.8414 11.1761C58.5869 11.1761 59.134 11.2254 59.4932 11.3763C59.67 11.4507 59.7958 11.5475 59.8783 11.6709C59.9608 11.7942 60.0058 11.9527 60.0058 12.1607H60.203C60.203 11.9238 60.1513 11.7245 60.0422 11.5613C59.933 11.3982 59.7723 11.2799 59.5696 11.1946C59.1696 11.0265 58.5852 10.979 57.8414 10.979V11.1761ZM60.0058 12.1607C60.0058 12.3634 59.961 12.5181 59.8788 12.6386C59.7965 12.7593 59.6708 12.8546 59.4937 12.9279C59.1343 13.0767 58.5868 13.1259 57.8414 13.1259V13.3231C58.5853 13.3231 59.1693 13.2756 59.5691 13.1101C59.7716 13.0262 59.9324 12.91 60.0417 12.7496C60.1511 12.5891 60.203 12.3932 60.203 12.1607H60.0058ZM57.8414 13.1259H52.0001V13.3231H57.8414V13.1259Z" fill="black"/>
<path d="M99.6834 21.1741C102.817 21.1741 105.254 20.5164 106.55 18.6016L107.265 21H110.322V13.3019H100.592V15.8744H105.66C105.389 17.2476 103.919 17.944 100.786 17.944C97.227 17.944 95.2928 17.0155 95.2928 14.4237C95.2928 11.8319 97.4011 10.9035 100.612 10.9035C103.9 10.9035 105.196 11.5998 105.544 12.5089H110.302C110.051 8.79519 105.428 7.67335 100.612 7.67335C96.0278 7.67335 90.6894 8.93059 90.6894 14.4237C90.6894 19.9168 95.3508 21.1741 99.6834 21.1741ZM114.401 7.84743V21H128.792V17.5958H119.005V7.84743H114.401ZM141.03 21.1741C145.633 21.1741 150.972 19.7428 150.972 14.4237C150.972 9.10466 145.633 7.67335 141.03 7.67335C136.446 7.67335 131.107 9.10466 131.107 14.4237C131.107 19.7428 136.446 21.1741 141.03 21.1741ZM135.711 14.4237C135.711 11.9286 138.071 11.0775 141.03 11.0775C144.009 11.0775 146.368 11.9286 146.368 14.4237C146.368 16.9382 144.009 17.7699 141.03 17.7699C138.071 17.7699 135.711 16.9382 135.711 14.4237ZM154.668 21H165.79C169.658 21 172.366 19.8975 172.366 17.0929C172.366 15.0233 171.032 14.1529 168.962 13.8048C170.722 13.4373 171.825 12.6636 171.825 11.1936C171.825 8.69848 169.272 7.84743 165.442 7.84743H154.668V21ZM159.272 17.7699V15.8163H165.713C166.989 15.8163 167.782 15.9711 167.782 16.7834C167.782 17.5958 166.989 17.7699 165.713 17.7699H159.272ZM159.272 12.915V11.0775H165.539C166.776 11.0775 167.569 11.2323 167.569 11.9866C167.569 12.7603 166.776 12.915 165.539 12.915H159.272ZM183.092 7.84743L174.465 21H179.726L181.312 18.2728H189.978L191.564 21H196.844L188.198 7.84743H183.092ZM183.266 14.8686L185.645 10.8068L188.024 14.8686H183.266ZM200.016 7.84743V21H214.407V17.5958H204.62V7.84743H200.016Z" fill="black"/>
<path d="M106.55 18.6016L106.644 18.5734L106.585 18.3741L106.468 18.5463L106.55 18.6016ZM107.265 21L107.171 21.0282L107.192 21.0986H107.265V21ZM110.322 21V21.0986H110.42V21H110.322ZM110.322 13.3019H110.42V13.2033H110.322V13.3019ZM100.592 13.3019V13.2033H100.494V13.3019H100.592ZM100.592 15.8744H100.494V15.9729H100.592V15.8744ZM105.66 15.8744L105.757 15.8934L105.78 15.7758H105.66V15.8744ZM105.544 12.5089L105.452 12.5441L105.476 12.6074H105.544V12.5089ZM110.302 12.5089V12.6074H110.408L110.401 12.5022L110.302 12.5089ZM99.6834 21.2726C102.823 21.2726 105.306 20.6149 106.631 18.6568L106.468 18.5463C105.202 20.418 102.81 21.0755 99.6834 21.0755V21.2726ZM106.455 18.6298L107.171 21.0282L107.36 20.9718L106.644 18.5734L106.455 18.6298ZM107.265 21.0986H110.322V20.9014H107.265V21.0986ZM110.42 21V13.3019H110.223V21H110.42ZM110.322 13.2033H100.592V13.4004H110.322V13.2033ZM100.494 13.3019V15.8744H100.691V13.3019H100.494ZM100.592 15.9729H105.66V15.7758H100.592V15.9729ZM105.563 15.8553C105.435 16.5048 105.026 16.9986 104.257 17.3338C103.483 17.6714 102.348 17.8454 100.786 17.8454V18.0425C102.357 18.0425 103.524 17.8683 104.336 17.5145C105.153 17.1582 105.614 16.6173 105.757 15.8934L105.563 15.8553ZM100.786 17.8454C99.0109 17.8454 97.6601 17.6131 96.7554 17.0712C95.8608 16.5354 95.3913 15.69 95.3913 14.4237H95.1942C95.1942 15.7493 95.6919 16.664 96.6541 17.2403C97.6062 17.8106 99.002 18.0425 100.786 18.0425V17.8454ZM95.3913 14.4237C95.3913 13.1604 95.902 12.3134 96.7989 11.7762C97.7044 11.2339 99.0125 11.002 100.612 11.002V10.8049C99.0004 10.8049 97.649 11.0373 96.6976 11.6071C95.7377 12.182 95.1942 13.0952 95.1942 14.4237H95.3913ZM100.612 11.002C102.251 11.002 103.383 11.1758 104.146 11.4577C104.907 11.739 105.291 12.124 105.452 12.5441L105.636 12.4736C105.449 11.9846 105.011 11.567 104.215 11.2728C103.42 10.9793 102.261 10.8049 100.612 10.8049V11.002ZM105.544 12.6074H110.302V12.4103H105.544V12.6074ZM110.401 12.5022C110.271 10.5949 109.016 9.36064 107.207 8.60749C105.4 7.8555 103.025 7.57479 100.612 7.57479V7.77192C103.015 7.77192 105.359 8.05213 107.131 8.78948C108.9 9.52566 110.082 10.7091 110.204 12.5155L110.401 12.5022ZM100.612 7.57479C98.3139 7.57479 95.8143 7.8894 93.8858 8.90133C92.9202 9.40802 92.0954 10.0908 91.5122 10.9983C90.9288 11.9063 90.5908 13.0337 90.5908 14.4237H90.7879C90.7879 13.0671 91.1173 11.9775 91.6781 11.1048C92.2391 10.2317 93.0354 9.57016 93.9774 9.07589C95.8641 8.08592 98.3257 7.77192 100.612 7.77192V7.57479ZM90.5908 14.4237C90.5908 17.2046 91.7741 18.9249 93.5118 19.9438C95.2413 20.958 97.5108 21.2726 99.6834 21.2726V21.0755C97.5234 21.0755 95.2959 20.7615 93.6115 19.7738C91.9354 18.7909 90.7879 17.136 90.7879 14.4237H90.5908ZM114.401 7.84743V7.74887H114.303V7.84743H114.401ZM114.401 21H114.303V21.0986H114.401V21ZM128.792 21V21.0986H128.891V21H128.792ZM128.792 17.5958H128.891V17.4972H128.792V17.5958ZM119.005 17.5958H118.906V17.6944H119.005V17.5958ZM119.005 7.84743H119.103V7.74887H119.005V7.84743ZM114.303 7.84743V21H114.5V7.84743H114.303ZM114.401 21.0986H128.792V20.9014H114.401V21.0986ZM128.891 21V17.5958H128.693V21H128.891ZM128.792 17.4972H119.005V17.6944H128.792V17.4972ZM119.103 17.5958V7.84743H118.906V17.5958H119.103ZM119.005 7.74887H114.401V7.946H119.005V7.74887ZM141.03 21.2726C143.339 21.2726 145.843 20.9141 147.774 19.8804C149.711 18.8432 151.07 17.1249 151.07 14.4237H150.873C150.873 17.0416 149.563 18.6984 147.68 19.7067C145.791 20.7184 143.324 21.0755 141.03 21.0755V21.2726ZM151.07 14.4237C151.07 11.7225 149.711 10.0042 147.774 8.967C145.843 7.93332 143.339 7.57479 141.03 7.57479V7.77192C143.324 7.77192 145.791 8.12905 147.68 9.14078C149.563 10.149 150.873 11.8059 150.873 14.4237H151.07ZM141.03 7.57479C138.73 7.57479 136.231 7.93333 134.303 8.96702C132.368 10.0042 131.009 11.7225 131.009 14.4237H131.206C131.206 11.8059 132.516 10.149 134.396 9.14076C136.283 8.12904 138.745 7.77192 141.03 7.77192V7.57479ZM131.009 14.4237C131.009 17.1249 132.368 18.8432 134.303 19.8804C136.231 20.9141 138.73 21.2726 141.03 21.2726V21.0755C138.745 21.0755 136.283 20.7184 134.396 19.7067C132.516 18.6984 131.206 17.0416 131.206 14.4237H131.009ZM135.809 14.4237C135.809 13.2153 136.377 12.4103 137.308 11.9014C138.246 11.3885 139.557 11.1761 141.03 11.1761V10.979C139.544 10.979 138.194 11.1922 137.213 11.7285C136.225 12.2689 135.612 13.137 135.612 14.4237H135.809ZM141.03 11.1761C142.513 11.1761 143.828 11.3885 144.769 11.9015C145.702 12.4104 146.27 13.2153 146.27 14.4237H146.467C146.467 13.137 145.854 12.2688 144.863 11.7284C143.88 11.1922 142.526 10.979 141.03 10.979V11.1761ZM146.27 14.4237C146.27 15.0363 146.126 15.5413 145.869 15.9554C145.612 16.3698 145.238 16.6985 144.769 16.9531C143.828 17.4637 142.513 17.6713 141.03 17.6713V17.8684C142.525 17.8684 143.879 17.6602 144.863 17.1264C145.356 16.8587 145.758 16.508 146.037 16.0593C146.315 15.6103 146.467 15.0683 146.467 14.4237H146.27ZM141.03 17.6713C139.556 17.6713 138.246 17.4637 137.308 16.9531C136.84 16.6986 136.466 16.3698 136.21 15.9554C135.953 15.5413 135.809 15.0363 135.809 14.4237H135.612C135.612 15.0683 135.764 15.6102 136.042 16.0593C136.32 16.508 136.721 16.8586 137.213 17.1263C138.195 17.6602 139.544 17.8684 141.03 17.8684V17.6713ZM154.668 21H154.57V21.0986H154.668V21ZM168.962 13.8048L168.942 13.7083L168.946 13.902L168.962 13.8048ZM154.668 7.84743V7.74887H154.57V7.84743H154.668ZM159.272 17.7699H159.173V17.8684H159.272V17.7699ZM159.272 15.8163V15.7178H159.173V15.8163H159.272ZM159.272 12.915H159.173V13.0136H159.272V12.915ZM159.272 11.0775V10.979H159.173V11.0775H159.272ZM154.668 21.0986H165.79V20.9014H154.668V21.0986ZM165.79 21.0986C167.731 21.0986 169.394 20.8225 170.576 20.1849C171.765 19.5434 172.465 18.5352 172.465 17.0929H172.268C172.268 18.4552 171.614 19.4006 170.482 20.0114C169.343 20.6262 167.718 20.9014 165.79 20.9014V21.0986ZM172.465 17.0929C172.465 16.0343 172.122 15.2706 171.505 14.7292C170.893 14.1918 170.021 13.8829 168.978 13.7076L168.946 13.902C169.973 14.0748 170.803 14.3752 171.375 14.8774C171.943 15.3757 172.268 16.0819 172.268 17.0929H172.465ZM168.982 13.9013C169.87 13.7159 170.604 13.426 171.117 12.9876C171.635 12.5456 171.923 11.9572 171.923 11.1936H171.726C171.726 11.9 171.463 12.4334 170.989 12.8377C170.512 13.2454 169.815 13.5261 168.942 13.7083L168.982 13.9013ZM171.923 11.1936C171.923 10.5521 171.759 10.0109 171.447 9.5619C171.136 9.11366 170.681 8.76338 170.111 8.49563C168.974 7.96153 167.361 7.74887 165.442 7.74887V7.946C167.353 7.946 168.931 8.15886 170.028 8.67406C170.575 8.93096 170.998 9.26128 171.285 9.67437C171.571 10.0867 171.726 10.5876 171.726 11.1936H171.923ZM165.442 7.74887H154.668V7.946H165.442V7.74887ZM154.57 7.84743V21H154.767V7.84743H154.57ZM159.37 17.7699V15.8163H159.173V17.7699H159.37ZM159.272 15.9149H165.713V15.7178H159.272V15.9149ZM165.713 15.9149C166.352 15.9149 166.852 15.9544 167.19 16.087C167.357 16.1525 167.479 16.2383 167.559 16.3479C167.639 16.4566 167.684 16.5971 167.684 16.7834H167.881C167.881 16.5636 167.827 16.3801 167.718 16.2314C167.61 16.0834 167.453 15.9783 167.262 15.9035C166.885 15.7557 166.35 15.7178 165.713 15.7178V15.9149ZM167.684 16.7834C167.684 16.9698 167.639 17.1118 167.559 17.2226C167.478 17.3341 167.356 17.4223 167.189 17.49C166.851 17.6271 166.351 17.6713 165.713 17.6713V17.8684C166.351 17.8684 166.886 17.8256 167.263 17.6726C167.454 17.5953 167.61 17.4876 167.718 17.338C167.827 17.1877 167.881 17.0033 167.881 16.7834H167.684ZM165.713 17.6713H159.272V17.8684H165.713V17.6713ZM159.37 12.915V11.0775H159.173V12.915H159.37ZM159.272 11.1761H165.539V10.979H159.272V11.1761ZM165.539 11.1761C166.158 11.1761 166.649 11.2154 166.984 11.3414C167.149 11.4038 167.269 11.4849 167.348 11.5868C167.427 11.6875 167.471 11.8164 167.471 11.9866H167.668C167.668 11.7797 167.613 11.6064 167.504 11.4659C167.396 11.3266 167.241 11.2276 167.053 11.157C166.681 11.017 166.157 10.979 165.539 10.979V11.1761ZM167.471 11.9866C167.471 12.1623 167.426 12.2951 167.348 12.3985C167.268 12.5029 167.148 12.5856 166.983 12.6489C166.649 12.7771 166.158 12.8165 165.539 12.8165V13.0136C166.157 13.0136 166.682 12.9756 167.054 12.833C167.241 12.7609 167.397 12.6599 167.505 12.5177C167.614 12.3745 167.668 12.1978 167.668 11.9866H167.471ZM165.539 12.8165H159.272V13.0136H165.539V12.8165ZM183.092 7.84743V7.74887H183.039L183.009 7.79338L183.092 7.84743ZM174.465 21L174.383 20.9459L174.283 21.0986H174.465V21ZM179.726 21V21.0986H179.783L179.811 21.0496L179.726 21ZM181.312 18.2728V18.1742H181.256L181.227 18.2232L181.312 18.2728ZM189.978 18.2728L190.063 18.2232L190.034 18.1742H189.978V18.2728ZM191.564 21L191.478 21.0496L191.507 21.0986H191.564V21ZM196.844 21V21.0986H197.027L196.926 20.9459L196.844 21ZM188.198 7.84743L188.28 7.79329L188.251 7.74887H188.198V7.84743ZM183.266 14.8686L183.181 14.8188L183.094 14.9671H183.266V14.8686ZM185.645 10.8068L185.73 10.7569L185.645 10.6117L185.56 10.7569L185.645 10.8068ZM188.024 14.8686V14.9671H188.196L188.109 14.8188L188.024 14.8686ZM183.009 7.79338L174.383 20.9459L174.548 21.0541L183.174 7.90149L183.009 7.79338ZM174.465 21.0986H179.726V20.9014H174.465V21.0986ZM179.811 21.0496L181.398 18.3223L181.227 18.2232L179.641 20.9504L179.811 21.0496ZM181.312 18.3713H189.978V18.1742H181.312V18.3713ZM189.892 18.3223L191.478 21.0496L191.649 20.9504L190.063 18.2232L189.892 18.3223ZM191.564 21.0986H196.844V20.9014H191.564V21.0986ZM196.926 20.9459L188.28 7.79329L188.116 7.90157L196.762 21.0541L196.926 20.9459ZM188.198 7.74887H183.092V7.946H188.198V7.74887ZM183.351 14.9184L185.73 10.8566L185.56 10.7569L183.181 14.8188L183.351 14.9184ZM185.56 10.8566L187.939 14.9184L188.109 14.8188L185.73 10.7569L185.56 10.8566ZM188.024 14.77H183.266V14.9671H188.024V14.77ZM200.016 7.84743V7.74887H199.918V7.84743H200.016ZM200.016 21H199.918V21.0986H200.016V21ZM214.407 21V21.0986H214.505V21H214.407ZM214.407 17.5958H214.505V17.4972H214.407V17.5958ZM204.62 17.5958H204.521V17.6944H204.62V17.5958ZM204.62 7.84743H204.718V7.74887H204.62V7.84743ZM199.918 7.84743V21H200.115V7.84743H199.918ZM200.016 21.0986H214.407V20.9014H200.016V21.0986ZM214.505 21V17.5958H214.308V21H214.505ZM214.407 17.4972H204.62V17.6944H214.407V17.4972ZM204.718 17.5958V7.84743H204.521V17.5958H204.718ZM204.62 7.74887H200.016V7.946H204.62V7.74887Z" fill="black"/>
<path d="M78.0617 6.70215C75.8659 6.70215 73.7601 7.53289 72.2074 9.01161C70.6547 10.4903 69.7825 12.4959 69.7825 14.5872C69.7825 16.6784 70.6547 18.684 72.2074 20.1627C73.7601 21.6414 75.8659 22.4722 78.0617 22.4722C80.2575 22.4722 82.3634 21.6414 83.916 20.1627C85.4687 18.684 86.341 16.6784 86.341 14.5872C86.341 12.4959 85.4687 10.4903 83.916 9.01161C82.3634 7.53289 80.2575 6.70215 78.0617 6.70215ZM82.7467 17.2155C82.8946 16.551 82.9884 15.8456 83.0182 15.1128H85.2161C85.1592 15.8362 84.9807 16.5461 84.6873 17.2155H82.7467ZM73.3768 11.9588C73.2239 12.6511 73.133 13.3545 73.1052 14.0615H70.9073C70.9643 13.3382 71.1428 12.6282 71.4361 11.9588H73.3768ZM81.6152 11.9588C81.7808 12.6317 81.8812 13.3361 81.9132 14.0615H78.6137V11.9588H81.6152ZM78.6137 10.9075V7.83023C78.8654 7.89962 79.1148 8.01737 79.3588 8.18138C79.8169 8.48942 80.2563 8.96357 80.6272 9.55231C80.8844 9.96023 81.1063 10.4134 81.2906 10.9075H78.6137ZM75.4963 9.55231C75.8672 8.96252 76.3065 8.48836 76.7646 8.18138C77.0097 8.01737 77.2581 7.89962 77.5098 7.83023V10.9075H74.8317C75.006 10.4362 75.2293 9.98236 75.4963 9.55231ZM77.5098 11.9588V14.0615H74.2102C74.2422 13.3361 74.3427 12.6317 74.5083 11.9588H77.5098ZM71.4361 17.2155C71.1428 16.5461 70.9643 15.8362 70.9073 15.1128H73.1052C73.1361 15.8456 73.2288 16.551 73.3768 17.2155H71.4361ZM74.2102 15.1128H77.5098V17.2155H74.5083C74.3427 16.5426 74.2422 15.8382 74.2102 15.1128ZM77.5098 18.2668V21.3441C77.2426 21.2674 76.9908 21.1487 76.7646 20.9929C76.3065 20.6849 75.8672 20.2107 75.4963 19.622C75.2284 19.1922 75.0059 18.7383 74.8317 18.2668H77.5098ZM80.6283 19.622C80.2574 20.2118 79.818 20.6859 79.3599 20.9929C79.1337 21.1485 78.8819 21.2671 78.6148 21.3441V18.2668H81.2928C81.1074 18.7609 80.8855 19.2141 80.6283 19.622ZM78.6137 17.2155V15.1128H81.9132C81.8812 15.8382 81.7808 16.5426 81.6152 17.2155H78.6137ZM83.0182 14.0615C82.9899 13.3546 82.899 12.6512 82.7467 11.9588H84.6873C84.9821 12.6306 85.1587 13.335 85.2161 14.0615H83.0182ZM84.11 10.9075H82.4564C82.1351 9.94236 81.6913 9.09604 81.1571 8.42003C81.8916 8.75432 82.5607 9.20591 83.1353 9.75522C83.5062 10.1085 83.8318 10.4933 84.11 10.9075ZM72.9882 9.75522C73.5632 9.20638 74.2322 8.75486 74.9664 8.42003C74.4332 9.09604 73.9883 9.94236 73.6671 10.9075H72.0135C72.2916 10.4933 72.6173 10.1074 72.9882 9.75522ZM72.0135 18.2668H73.6671C73.9883 19.2319 74.4321 20.0783 74.9664 20.7543C74.2318 20.42 73.5628 19.9684 72.9882 19.4191C72.6205 19.0697 72.2937 18.6834 72.0135 18.2668ZM83.1353 19.4191C82.5603 19.9679 81.8913 20.4194 81.1571 20.7543C81.6902 20.0783 82.1351 19.2319 82.4564 18.2668H84.11C83.8301 18.6835 83.5032 19.0699 83.1353 19.4191Z" fill="black"/>
</svg>
