<svg width="206" height="26" viewBox="0 0 206 26" fill="none" xmlns="http://www.w3.org/2000/svg">
<path d="M8.9708 20.1661C11.9611 20.1661 14.2868 19.5385 15.5236 17.7112L16.2065 20H19.1229V12.6535H9.83835V15.1085H14.6745C14.416 16.4191 13.0132 17.0836 10.0229 17.0836C6.62658 17.0836 4.78074 16.1976 4.78074 13.7241C4.78074 11.2507 6.79271 10.3647 9.85681 10.3647C12.9947 10.3647 14.2315 11.0292 14.5637 11.8967H19.1045C18.8645 8.35272 14.453 7.28213 9.85681 7.28213C5.48216 7.28213 0.387627 8.48193 0.387627 13.7241C0.387627 18.9663 4.83611 20.1661 8.9708 20.1661ZM31.1858 20.1661C34.1761 20.1661 36.5019 19.5385 37.7386 17.7112L38.4215 20H41.338V12.6535H32.0534V15.1085H36.8895C36.6311 16.4191 35.2282 17.0836 32.238 17.0836C28.8416 17.0836 26.9958 16.1976 26.9958 13.7241C26.9958 11.2507 29.0077 10.3647 32.0718 10.3647C35.2098 10.3647 36.4465 11.0292 36.7787 11.8967H41.3195C41.0796 8.35272 36.668 7.28213 32.0718 7.28213C27.6972 7.28213 22.6027 8.48193 22.6027 13.7241C22.6027 18.9663 27.0511 20.1661 31.1858 20.1661ZM45.2315 20H49.6247V15.3485H55.236C56.8419 15.3485 57.3034 15.773 57.3034 16.8805V18.5418C57.3034 19.2801 57.3772 19.8154 57.451 20H62.0287V19.7416C61.7703 19.5385 61.6965 19.2986 61.6965 18.8556V16.5667C61.6965 14.9424 60.5336 14.3333 58.4663 14.2225H58.4293C60.5521 13.9087 61.7334 13.0781 61.7334 11.0846C61.7334 8.27889 59.463 7.44826 55.5314 7.44826H45.2315V20ZM49.6247 12.5797V10.5308H55.1991C56.6204 10.5308 57.3587 10.7154 57.3587 11.5645C57.3587 12.3951 56.6204 12.5797 55.1991 12.5797H49.6247Z" fill="#00EE34"/>
<path d="M15.5236 17.7112L15.6137 17.6843L15.5569 17.494L15.4457 17.6584L15.5236 17.7112ZM16.2065 20L16.1164 20.0269L16.1364 20.0941H16.2065V20ZM19.1229 20V20.0941H19.217V20H19.1229ZM19.1229 12.6535H19.217V12.5595H19.1229V12.6535ZM9.83835 12.6535V12.5595H9.74429V12.6535H9.83835ZM9.83835 15.1085H9.74429V15.2026H9.83835V15.1085ZM14.6745 15.1085L14.7667 15.1267L14.7889 15.0145H14.6745V15.1085ZM14.5637 11.8967L14.4759 11.9304L14.499 11.9908H14.5637V11.8967ZM19.1045 11.8967V11.9908H19.2051L19.1983 11.8904L19.1045 11.8967ZM8.9708 20.2602C11.9674 20.2602 14.3368 19.6325 15.6014 17.7639L15.4457 17.6584C14.2369 19.4446 11.9548 20.0721 8.9708 20.0721V20.2602ZM15.4334 17.738L16.1164 20.0269L16.2966 19.9731L15.6137 17.6843L15.4334 17.738ZM16.2065 20.0941H19.1229V19.9059H16.2065V20.0941ZM19.217 20V12.6535H19.0289V20H19.217ZM19.1229 12.5595H9.83835V12.7476H19.1229V12.5595ZM9.74429 12.6535V15.1085H9.93241V12.6535H9.74429ZM9.83835 15.2026H14.6745V15.0145H9.83835V15.2026ZM14.5822 15.0903C14.46 15.7101 14.0693 16.1814 13.3356 16.5013C12.5965 16.8235 11.5136 16.9895 10.0229 16.9895V17.1776C11.5226 17.1776 12.6362 17.0114 13.4107 16.6737C14.1906 16.3337 14.6305 15.8175 14.7667 15.1267L14.5822 15.0903ZM10.0229 16.9895C8.32905 16.9895 7.03992 16.7678 6.17653 16.2507C5.32278 15.7393 4.8748 14.9326 4.8748 13.7241H4.68668C4.68668 14.9891 5.16162 15.8621 6.07987 16.4121C6.98849 16.9563 8.32046 17.1776 10.0229 17.1776V16.9895ZM4.8748 13.7241C4.8748 12.5185 5.36209 11.7103 6.21807 11.1976C7.08217 10.68 8.33057 10.4588 9.85681 10.4588V10.2706C8.31895 10.2706 7.02931 10.4924 6.1214 11.0362C5.20537 11.5848 4.68668 12.4563 4.68668 13.7241H4.8748ZM9.85681 10.4588C11.4208 10.4588 12.5018 10.6246 13.2298 10.8936C13.9561 11.162 14.3223 11.5295 14.4759 11.9304L14.6516 11.8631C14.4728 11.3965 14.0546 10.9979 13.295 10.7172C12.5371 10.4371 11.4308 10.2706 9.85681 10.2706V10.4588ZM14.5637 11.9908H19.1045V11.8027H14.5637V11.9908ZM19.1983 11.8904C19.0751 10.0702 17.8772 8.89234 16.1504 8.17359C14.4262 7.45596 12.1598 7.18807 9.85681 7.18807V7.37619C12.15 7.37619 14.3874 7.6436 16.0781 8.34727C17.766 9.04982 18.8939 10.1792 19.0106 11.9031L19.1983 11.8904ZM9.85681 7.18807C7.66385 7.18807 5.27846 7.48831 3.43802 8.45402C2.5165 8.93755 1.72937 9.58911 1.17287 10.4552C0.616077 11.3217 0.293567 12.3977 0.293567 13.7241H0.481687C0.481687 12.4295 0.795994 11.3897 1.33113 10.5569C1.86657 9.72359 2.62649 9.09229 3.52543 8.6206C5.32591 7.67586 7.67512 7.37619 9.85681 7.37619V7.18807ZM0.293567 13.7241C0.293567 16.378 1.42282 18.0197 3.08113 18.9921C4.73158 19.9599 6.89747 20.2602 8.9708 20.2602V20.0721C6.90945 20.0721 4.78375 19.7724 3.17629 18.8298C1.57668 17.8918 0.481687 16.3125 0.481687 13.7241H0.293567ZM37.7386 17.7112L37.8287 17.6843L37.7719 17.494L37.6607 17.6584L37.7386 17.7112ZM38.4215 20L38.3314 20.0269L38.3514 20.0941H38.4215V20ZM41.338 20V20.0941H41.432V20H41.338ZM41.338 12.6535H41.432V12.5595H41.338V12.6535ZM32.0534 12.6535V12.5595H31.9593V12.6535H32.0534ZM32.0534 15.1085H31.9593V15.2026H32.0534V15.1085ZM36.8895 15.1085L36.9818 15.1267L37.0039 15.0145H36.8895V15.1085ZM36.7787 11.8967L36.6909 11.9304L36.714 11.9908H36.7787V11.8967ZM41.3195 11.8967V11.9908H41.4202L41.4134 11.8904L41.3195 11.8967ZM31.1858 20.2602C34.1824 20.2602 36.5518 19.6325 37.8165 17.7639L37.6607 17.6584C36.4519 19.4446 34.1698 20.0721 31.1858 20.0721V20.2602ZM37.6484 17.738L38.3314 20.0269L38.5117 19.9731L37.8287 17.6843L37.6484 17.738ZM38.4215 20.0941H41.338V19.9059H38.4215V20.0941ZM41.432 20V12.6535H41.2439V20H41.432ZM41.338 12.5595H32.0534V12.7476H41.338V12.5595ZM31.9593 12.6535V15.1085H32.1474V12.6535H31.9593ZM32.0534 15.2026H36.8895V15.0145H32.0534V15.2026ZM36.7972 15.0903C36.675 15.7101 36.2843 16.1814 35.5506 16.5013C34.8115 16.8235 33.7286 16.9895 32.238 16.9895V17.1776C33.7376 17.1776 34.8513 17.0114 35.6258 16.6737C36.4056 16.3337 36.8456 15.8175 36.9818 15.1267L36.7972 15.0903ZM32.238 16.9895C30.5441 16.9895 29.2549 16.7678 28.3916 16.2507C27.5378 15.7393 27.0898 14.9326 27.0898 13.7241H26.9017C26.9017 14.9891 27.3766 15.8621 28.2949 16.4121C29.2035 16.9563 30.5355 17.1776 32.238 17.1776V16.9895ZM27.0898 13.7241C27.0898 12.5185 27.5771 11.7103 28.4331 11.1976C29.2972 10.68 30.5456 10.4588 32.0718 10.4588V10.2706C30.534 10.2706 29.2443 10.4924 28.3364 11.0362C27.4204 11.5848 26.9017 12.4563 26.9017 13.7241H27.0898ZM32.0718 10.4588C33.6358 10.4588 34.7168 10.6246 35.4448 10.8936C36.1711 11.162 36.5374 11.5295 36.6909 11.9304L36.8666 11.8631C36.6879 11.3965 36.2697 10.9979 35.51 10.7172C34.7521 10.4371 33.6458 10.2706 32.0718 10.2706V10.4588ZM36.7787 11.9908H41.3195V11.8027H36.7787V11.9908ZM41.4134 11.8904C41.2901 10.0702 40.0922 8.89234 38.3654 8.17359C36.6412 7.45596 34.3748 7.18807 32.0718 7.18807V7.37619C34.365 7.37619 36.6025 7.6436 38.2931 8.34727C39.9811 9.04982 41.109 10.1792 41.2257 11.9031L41.4134 11.8904ZM32.0718 7.18807C29.8789 7.18807 27.4935 7.48831 25.653 8.45402C24.7315 8.93755 23.9444 9.58911 23.3879 10.4552C22.8311 11.3217 22.5086 12.3977 22.5086 13.7241H22.6967C22.6967 12.4295 23.011 11.3897 23.5462 10.5569C24.0816 9.72359 24.8415 9.09229 25.7405 8.6206C27.5409 7.67586 29.8901 7.37619 32.0718 7.37619V7.18807ZM22.5086 13.7241C22.5086 16.378 23.6378 18.0197 25.2962 18.9921C26.9466 19.9599 29.1125 20.2602 31.1858 20.2602V20.0721C29.1245 20.0721 26.9988 19.7724 25.3913 18.8298C23.7917 17.8918 22.6967 16.3125 22.6967 13.7241H22.5086ZM45.2315 20H45.1375V20.0941H45.2315V20ZM49.6247 20V20.0941H49.7187V20H49.6247ZM49.6247 15.3485V15.2544H49.5306V15.3485H49.6247ZM57.451 20L57.3637 20.0349L57.3874 20.0941H57.451V20ZM62.0287 20V20.0941H62.1228V20H62.0287ZM62.0287 19.7416H62.1228V19.6959L62.0868 19.6676L62.0287 19.7416ZM58.4663 14.2225L58.4713 14.1284H58.4663V14.2225ZM58.4293 14.2225L58.4156 14.1295L58.4293 14.3166V14.2225ZM45.2315 7.44826V7.3542H45.1375V7.44826H45.2315ZM49.6247 12.5797H49.5306V12.6738H49.6247V12.5797ZM49.6247 10.5308V10.4368H49.5306V10.5308H49.6247ZM45.2315 20.0941H49.6247V19.9059H45.2315V20.0941ZM49.7187 20V15.3485H49.5306V20H49.7187ZM49.6247 15.4425H55.236V15.2544H49.6247V15.4425ZM55.236 15.4425C56.0368 15.4425 56.5251 15.5498 56.8143 15.7736C57.0958 15.9914 57.2093 16.3371 57.2093 16.8805H57.3974C57.3974 16.3164 57.2802 15.8961 56.9295 15.6248C56.5865 15.3595 56.0411 15.2544 55.236 15.2544V15.4425ZM57.2093 16.8805V18.5418H57.3974V16.8805H57.2093ZM57.2093 18.5418C57.2093 18.9139 57.2279 19.2358 57.256 19.4889C57.2838 19.739 57.3217 19.9299 57.3637 20.0349L57.5384 19.9651C57.5065 19.8855 57.4706 19.7165 57.443 19.4682C57.4157 19.2229 57.3974 18.908 57.3974 18.5418H57.2093ZM57.451 20.0941H62.0287V19.9059H57.451V20.0941ZM62.1228 20V19.7416H61.9347V20H62.1228ZM62.0868 19.6676C61.9699 19.5757 61.8983 19.4789 61.8542 19.3567C61.8089 19.2312 61.7905 19.0733 61.7905 18.8556H61.6024C61.6024 19.0808 61.6209 19.2644 61.6772 19.4205C61.7346 19.5797 61.8292 19.7044 61.9706 19.8155L62.0868 19.6676ZM61.7905 18.8556V16.5667H61.6024V18.8556H61.7905ZM61.7905 16.5667C61.7905 15.728 61.4879 15.1381 60.9091 14.749C60.3383 14.3652 59.5097 14.1842 58.4713 14.1286L58.4612 14.3164C59.4902 14.3716 60.2766 14.5505 60.8041 14.9051C61.3236 15.2543 61.6024 15.7812 61.6024 16.5667H61.7905ZM58.4663 14.1284H58.4293V14.3166H58.4663V14.1284ZM58.4431 14.3156C59.5112 14.1577 60.3588 13.8679 60.9397 13.3539C61.5251 12.836 61.8275 12.1016 61.8275 11.0846H61.6393C61.6393 12.061 61.3511 12.7387 60.8151 13.213C60.2746 13.6911 59.4702 13.9736 58.4156 14.1295L58.4431 14.3156ZM61.8275 11.0846C61.8275 10.3704 61.6829 9.77526 61.3986 9.28552C61.114 8.79544 60.6931 8.41711 60.1506 8.13108C59.07 7.56135 57.4996 7.3542 55.5314 7.3542V7.54232C57.4947 7.54232 59.0254 7.75049 60.0629 8.29749C60.5794 8.56983 60.9718 8.92522 61.2359 9.37998C61.5001 9.83508 61.6393 10.3959 61.6393 11.0846H61.8275ZM55.5314 7.3542H45.2315V7.54232H55.5314V7.3542ZM45.1375 7.44826V20H45.3256V7.44826H45.1375ZM49.7187 12.5797V10.5308H49.5306V12.5797H49.7187ZM49.6247 10.6249H55.1991V10.4368H49.6247V10.6249ZM55.1991 10.6249C55.9105 10.6249 56.4327 10.6719 56.7755 10.816C56.9442 10.8869 57.0643 10.9793 57.143 11.0971C57.2217 11.2147 57.2647 11.366 57.2647 11.5645H57.4528C57.4528 11.3384 57.4035 11.1482 57.2994 10.9925C57.1952 10.8368 57.0419 10.7239 56.8484 10.6425C56.4666 10.4821 55.909 10.4368 55.1991 10.4368V10.6249ZM57.2647 11.5645C57.2647 11.7579 57.2219 11.9055 57.1435 12.0206C57.0649 12.1358 56.9449 12.2267 56.7759 12.2967C56.4329 12.4387 55.9104 12.4856 55.1991 12.4856V12.6738C55.9091 12.6738 56.4664 12.6284 56.8479 12.4705C57.0412 12.3905 57.1946 12.2795 57.2989 12.1265C57.4033 11.9733 57.4528 11.7864 57.4528 11.5645H57.2647ZM55.1991 12.4856H49.6247V12.6738H55.1991V12.4856Z" fill="black"/>
<path d="M95.1297 20.1661C98.12 20.1661 100.446 19.5385 101.682 17.7112L102.365 20H105.282V12.6535H95.9973V15.1085H100.833C100.575 16.4191 99.1721 17.0836 96.1819 17.0836C92.7855 17.0836 90.9397 16.1976 90.9397 13.7241C90.9397 11.2507 92.9516 10.3647 96.0157 10.3647C99.1537 10.3647 100.39 11.0292 100.723 11.8967H105.263C105.023 8.35272 100.612 7.28213 96.0157 7.28213C91.6411 7.28213 86.5466 8.48193 86.5466 13.7241C86.5466 18.9663 90.995 20.1661 95.1297 20.1661ZM109.175 7.44826V20H122.909V16.7513H113.569V7.44826H109.175ZM134.587 20.1661C138.981 20.1661 144.075 18.8002 144.075 13.7241C144.075 8.64806 138.981 7.28213 134.587 7.28213C130.213 7.28213 125.118 8.64806 125.118 13.7241C125.118 18.8002 130.213 20.1661 134.587 20.1661ZM129.511 13.7241C129.511 11.343 131.763 10.5308 134.587 10.5308C137.43 10.5308 139.682 11.343 139.682 13.7241C139.682 16.1237 137.43 16.9174 134.587 16.9174C131.763 16.9174 129.511 16.1237 129.511 13.7241ZM147.603 20H158.217C161.908 20 164.492 18.9479 164.492 16.2714C164.492 14.2963 163.219 13.4657 161.244 13.1335C162.923 12.7827 163.976 12.0444 163.976 10.6416C163.976 8.26043 161.539 7.44826 157.884 7.44826H147.603V20ZM151.996 16.9174V15.0531H158.143C159.361 15.0531 160.118 15.2008 160.118 15.9761C160.118 16.7513 159.361 16.9174 158.143 16.9174H151.996ZM151.996 12.2844V10.5308H157.977C159.158 10.5308 159.915 10.6785 159.915 11.3984C159.915 12.1367 159.158 12.2844 157.977 12.2844H151.996ZM174.728 7.44826L166.495 20H171.516L173.03 17.3974H181.299L182.813 20H187.852L179.601 7.44826H174.728ZM174.894 14.1487L177.164 10.2724L179.435 14.1487H174.894ZM190.879 7.44826V20H204.612V16.7513H195.272V7.44826H190.879Z" fill="#00EE34"/>
<path d="M101.682 17.7112L101.773 17.6843L101.716 17.494L101.605 17.6584L101.682 17.7112ZM102.365 20L102.275 20.0269L102.295 20.0941H102.365V20ZM105.282 20V20.0941H105.376V20H105.282ZM105.282 12.6535H105.376V12.5595H105.282V12.6535ZM95.9973 12.6535V12.5595H95.9032V12.6535H95.9973ZM95.9973 15.1085H95.9032V15.2026H95.9973V15.1085ZM100.833 15.1085L100.926 15.1267L100.948 15.0145H100.833V15.1085ZM100.723 11.8967L100.635 11.9304L100.658 11.9908H100.723V11.8967ZM105.263 11.8967V11.9908H105.364L105.357 11.8904L105.263 11.8967ZM95.1297 20.2602C98.1263 20.2602 100.496 19.6325 101.76 17.7639L101.605 17.6584C100.396 19.4446 98.1137 20.0721 95.1297 20.0721V20.2602ZM101.592 17.738L102.275 20.0269L102.456 19.9731L101.773 17.6843L101.592 17.738ZM102.365 20.0941H105.282V19.9059H102.365V20.0941ZM105.376 20V12.6535H105.188V20H105.376ZM105.282 12.5595H95.9973V12.7476H105.282V12.5595ZM95.9032 12.6535V15.1085H96.0913V12.6535H95.9032ZM95.9973 15.2026H100.833V15.0145H95.9973V15.2026ZM100.741 15.0903C100.619 15.7101 100.228 16.1814 99.4945 16.5013C98.7554 16.8235 97.6725 16.9895 96.1819 16.9895V17.1776C97.6815 17.1776 98.7952 17.0114 99.5697 16.6737C100.35 16.3337 100.789 15.8175 100.926 15.1267L100.741 15.0903ZM96.1819 16.9895C94.488 16.9895 93.1989 16.7678 92.3355 16.2507C91.4817 15.7393 91.0337 14.9326 91.0337 13.7241H90.8456C90.8456 14.9891 91.3206 15.8621 92.2388 16.4121C93.1474 16.9563 94.4794 17.1776 96.1819 17.1776V16.9895ZM91.0337 13.7241C91.0337 12.5185 91.521 11.7103 92.377 11.1976C93.2411 10.68 94.4895 10.4588 96.0157 10.4588V10.2706C94.4779 10.2706 93.1882 10.4924 92.2803 11.0362C91.3643 11.5848 90.8456 12.4563 90.8456 13.7241H91.0337ZM96.0157 10.4588C97.5797 10.4588 98.6607 10.6246 99.3887 10.8936C100.115 11.162 100.481 11.5295 100.635 11.9304L100.81 11.8631C100.632 11.3965 100.214 10.9979 99.4539 10.7172C98.696 10.4371 97.5897 10.2706 96.0157 10.2706V10.4588ZM100.723 11.9908H105.263V11.8027H100.723V11.9908ZM105.357 11.8904C105.234 10.0702 104.036 8.89234 102.309 8.17359C100.585 7.45596 98.3187 7.18807 96.0157 7.18807V7.37619C98.3089 7.37619 100.546 7.6436 102.237 8.34727C103.925 9.04982 105.053 10.1792 105.17 11.9031L105.357 11.8904ZM96.0157 7.18807C93.8228 7.18807 91.4374 7.48831 89.597 8.45402C88.6754 8.93755 87.8883 9.58911 87.3318 10.4552C86.775 11.3217 86.4525 12.3977 86.4525 13.7241H86.6406C86.6406 12.4295 86.9549 11.3897 87.4901 10.5569C88.0255 9.72359 88.7854 9.09229 89.6844 8.6206C91.4848 7.67586 93.8341 7.37619 96.0157 7.37619V7.18807ZM86.4525 13.7241C86.4525 16.378 87.5818 18.0197 89.2401 18.9921C90.8905 19.9599 93.0564 20.2602 95.1297 20.2602V20.0721C93.0684 20.0721 90.9427 19.7724 89.3352 18.8298C87.7356 17.8918 86.6406 16.3125 86.6406 13.7241H86.4525ZM109.175 7.44826V7.3542H109.081V7.44826H109.175ZM109.175 20H109.081V20.0941H109.175V20ZM122.909 20V20.0941H123.003V20H122.909ZM122.909 16.7513H123.003V16.6573H122.909V16.7513ZM113.569 16.7513H113.475V16.8454H113.569V16.7513ZM113.569 7.44826H113.663V7.3542H113.569V7.44826ZM109.081 7.44826V20H109.27V7.44826H109.081ZM109.175 20.0941H122.909V19.9059H109.175V20.0941ZM123.003 20V16.7513H122.814V20H123.003ZM122.909 16.6573H113.569V16.8454H122.909V16.6573ZM113.663 16.7513V7.44826H113.475V16.7513H113.663ZM113.569 7.3542H109.175V7.54232H113.569V7.3542ZM134.587 20.2602C136.791 20.2602 139.181 19.918 141.023 18.9316C142.872 17.9418 144.169 16.3019 144.169 13.7241H143.981C143.981 16.2224 142.731 17.8036 140.934 18.7657C139.131 19.7312 136.777 20.0721 134.587 20.0721V20.2602ZM144.169 13.7241C144.169 11.1463 142.872 9.50649 141.023 8.51668C139.181 7.53022 136.791 7.18807 134.587 7.18807V7.37619C136.777 7.37619 139.131 7.71701 140.934 8.68253C142.731 9.6447 143.981 11.2259 143.981 13.7241H144.169ZM134.587 7.18807C132.393 7.18807 130.008 7.53023 128.168 8.51671C126.322 9.50652 125.024 11.1463 125.024 13.7241H125.212C125.212 11.2259 126.462 9.64467 128.257 8.6825C130.058 7.717 132.407 7.37619 134.587 7.37619V7.18807ZM125.024 13.7241C125.024 16.3019 126.322 17.9417 128.168 18.9316C130.008 19.918 132.393 20.2602 134.587 20.2602V20.0721C132.407 20.0721 130.058 19.7313 128.257 18.7658C126.462 17.8036 125.212 16.2224 125.212 13.7241H125.024ZM129.605 13.7241C129.605 12.5709 130.147 11.8027 131.035 11.3171C131.931 10.8275 133.181 10.6249 134.587 10.6249V10.4368C133.169 10.4368 131.882 10.6402 130.945 11.152C130.002 11.6677 129.417 12.4962 129.417 13.7241H129.605ZM134.587 10.6249C136.003 10.6249 137.258 10.8275 138.156 11.3171C139.046 11.8028 139.588 12.5709 139.588 13.7241H139.776C139.776 12.4962 139.192 11.6677 138.246 11.152C137.307 10.6402 136.015 10.4368 134.587 10.4368V10.6249ZM139.588 13.7241C139.588 14.3087 139.451 14.7907 139.206 15.1858C138.96 15.5813 138.603 15.895 138.156 16.138C137.258 16.6253 136.003 16.8234 134.587 16.8234V17.0115C136.014 17.0115 137.307 16.8128 138.246 16.3033C138.716 16.0479 139.1 15.7132 139.366 15.285C139.631 14.8565 139.776 14.3393 139.776 13.7241H139.588ZM134.587 16.8234C133.181 16.8234 131.931 16.6253 131.035 16.138C130.589 15.8951 130.232 15.5814 129.987 15.1859C129.742 14.7907 129.605 14.3087 129.605 13.7241H129.417C129.417 14.3393 129.562 14.8564 129.827 15.285C130.093 15.7132 130.476 16.0478 130.945 16.3033C131.882 16.8127 133.169 17.0115 134.587 17.0115V16.8234ZM147.603 20H147.509V20.0941H147.603V20ZM161.244 13.1335L161.224 13.0414L161.228 13.2262L161.244 13.1335ZM147.603 7.44826V7.3542H147.509V7.44826H147.603ZM151.996 16.9174H151.902V17.0115H151.996V16.9174ZM151.996 15.0531V14.9591H151.902V15.0531H151.996ZM151.996 12.2844H151.902V12.3784H151.996V12.2844ZM151.996 10.5308V10.4368H151.902V10.5308H151.996ZM147.603 20.0941H158.217V19.9059H147.603V20.0941ZM158.217 20.0941C160.068 20.0941 161.656 19.8306 162.783 19.2222C163.918 18.6099 164.586 17.6478 164.586 16.2714H164.398C164.398 17.5715 163.775 18.4736 162.694 19.0566C161.607 19.6433 160.056 19.9059 158.217 19.9059V20.0941ZM164.586 16.2714C164.586 15.2612 164.259 14.5323 163.671 14.0157C163.086 13.5028 162.254 13.208 161.259 13.0407L161.228 13.2262C162.209 13.3912 163.001 13.6778 163.547 14.1571C164.089 14.6326 164.398 15.3066 164.398 16.2714H164.586ZM161.263 13.2255C162.11 13.0487 162.81 12.772 163.301 12.3536C163.795 11.9318 164.07 11.3703 164.07 10.6416H163.881C163.881 11.3157 163.63 11.8248 163.178 12.2105C162.723 12.5997 162.057 12.8675 161.224 13.0414L161.263 13.2255ZM164.07 10.6416C164.07 10.0294 163.913 9.51291 163.615 9.0844C163.318 8.65664 162.884 8.32236 162.34 8.06685C161.255 7.55714 159.715 7.3542 157.884 7.3542V7.54232C159.708 7.54232 161.214 7.74546 162.26 8.23712C162.782 8.48229 163.187 8.79752 163.46 9.19174C163.734 9.58521 163.881 10.0632 163.881 10.6416H164.07ZM157.884 7.3542H147.603V7.54232H157.884V7.3542ZM147.509 7.44826V20H147.697V7.44826H147.509ZM152.09 16.9174V15.0531H151.902V16.9174H152.09ZM151.996 15.1472H158.143V14.9591H151.996V15.1472ZM158.143 15.1472C158.752 15.1472 159.23 15.1848 159.553 15.3115C159.712 15.3739 159.828 15.4559 159.905 15.5604C159.981 15.6641 160.024 15.7982 160.024 15.9761H160.212C160.212 15.7663 160.16 15.5912 160.056 15.4492C159.953 15.308 159.803 15.2077 159.621 15.1363C159.261 14.9953 158.751 14.9591 158.143 14.9591V15.1472ZM160.024 15.9761C160.024 16.1539 159.981 16.2894 159.904 16.3951C159.827 16.5016 159.711 16.5857 159.552 16.6503C159.229 16.7812 158.752 16.8234 158.143 16.8234V17.0115C158.752 17.0115 159.262 16.9706 159.622 16.8246C159.805 16.7508 159.954 16.648 160.057 16.5053C160.16 16.3618 160.212 16.1858 160.212 15.9761H160.024ZM158.143 16.8234H151.996V17.0115H158.143V16.8234ZM152.09 12.2844V10.5308H151.902V12.2844H152.09ZM151.996 10.6249H157.977V10.4368H151.996V10.6249ZM157.977 10.6249C158.567 10.6249 159.036 10.6624 159.355 10.7827C159.513 10.8421 159.628 10.9195 159.704 11.0168C159.778 11.1129 159.821 11.2359 159.821 11.3984H160.009C160.009 11.2009 159.956 11.0355 159.852 10.9014C159.749 10.7685 159.601 10.6741 159.422 10.6066C159.067 10.4731 158.567 10.4368 157.977 10.4368V10.6249ZM159.821 11.3984C159.821 11.566 159.778 11.6927 159.703 11.7914C159.627 11.8911 159.513 11.97 159.355 12.0304C159.036 12.1527 158.567 12.1903 157.977 12.1903V12.3784C158.567 12.3784 159.067 12.3422 159.422 12.2061C159.602 12.1373 159.75 12.0408 159.853 11.9052C159.957 11.7685 160.009 11.5999 160.009 11.3984H159.821ZM157.977 12.1903H151.996V12.3784H157.977V12.1903ZM174.728 7.44826V7.3542H174.677L174.649 7.39667L174.728 7.44826ZM166.495 20L166.417 19.9484L166.321 20.0941H166.495V20ZM171.516 20V20.0941H171.57L171.597 20.0473L171.516 20ZM173.03 17.3974V17.3033H172.976L172.948 17.3501L173.03 17.3974ZM181.299 17.3974L181.38 17.3501L181.353 17.3033H181.299V17.3974ZM182.813 20L182.731 20.0473L182.759 20.0941H182.813V20ZM187.852 20V20.0941H188.026L187.93 19.9483L187.852 20ZM179.601 7.44826L179.68 7.39659L179.652 7.3542H179.601V7.44826ZM174.894 14.1487L174.813 14.1011L174.73 14.2427H174.894V14.1487ZM177.164 10.2724L177.246 10.2249L177.164 10.0863L177.083 10.2249L177.164 10.2724ZM179.435 14.1487V14.2427H179.599L179.516 14.1011L179.435 14.1487ZM174.649 7.39667L166.417 19.9484L166.574 20.0516L174.807 7.49985L174.649 7.39667ZM166.495 20.0941H171.516V19.9059H166.495V20.0941ZM171.597 20.0473L173.111 17.4446L172.948 17.3501L171.435 19.9527L171.597 20.0473ZM173.03 17.4914H181.299V17.3033H173.03V17.4914ZM181.218 17.4446L182.731 20.0473L182.894 19.9527L181.38 17.3501L181.218 17.4446ZM182.813 20.0941H187.852V19.9059H182.813V20.0941ZM187.93 19.9483L179.68 7.39659L179.522 7.49993L187.773 20.0517L187.93 19.9483ZM179.601 7.3542H174.728V7.54232H179.601V7.3542ZM174.975 14.1962L177.246 10.3199L177.083 10.2249L174.813 14.1011L174.975 14.1962ZM177.083 10.3199L179.354 14.1962L179.516 14.1011L177.246 10.2249L177.083 10.3199ZM179.435 14.0546H174.894V14.2427H179.435V14.0546ZM190.879 7.44826V7.3542H190.785V7.44826H190.879ZM190.879 20H190.785V20.0941H190.879V20ZM204.612 20V20.0941H204.706V20H204.612ZM204.612 16.7513H204.706V16.6573H204.612V16.7513ZM195.272 16.7513H195.178V16.8454H195.272V16.7513ZM195.272 7.44826H195.366V7.3542H195.272V7.44826ZM190.785 7.44826V20H190.973V7.44826H190.785ZM190.879 20.0941H204.612V19.9059H190.879V20.0941ZM204.706 20V16.7513H204.518V20H204.706ZM204.612 16.6573H195.272V16.8454H204.612V16.6573ZM195.366 16.7513V7.44826H195.178V16.7513H195.366ZM195.272 7.3542H190.879V7.54232H195.272V7.3542Z" fill="black"/>
<path d="M74.4955 6.39612C72.4 6.39612 70.3904 7.18891 68.9086 8.60008C67.4269 10.0113 66.5945 11.9252 66.5945 13.9209C66.5945 15.9166 67.4269 17.8306 68.9086 19.2418C70.3904 20.6529 72.4 21.4457 74.4955 21.4457C76.591 21.4457 78.6007 20.6529 80.0824 19.2418C81.5641 17.8306 82.3966 15.9166 82.3966 13.9209C82.3966 11.9252 81.5641 10.0113 80.0824 8.60008C78.6007 7.18891 76.591 6.39612 74.4955 6.39612ZM78.9665 16.4292C79.1076 15.7951 79.1972 15.1219 79.2256 14.4226H81.3231C81.2688 15.1129 81.0984 15.7904 80.8185 16.4292H78.9665ZM70.0246 11.4127C69.8787 12.0733 69.792 12.7446 69.7654 13.4193H67.668C67.7223 12.729 67.8927 12.0515 68.1726 11.4127H70.0246ZM77.8867 11.4127C78.0447 12.0548 78.1405 12.727 78.1711 13.4193H75.0223V11.4127H77.8867ZM75.0223 10.4093V7.47267C75.2625 7.53889 75.5005 7.65126 75.7334 7.80777C76.1706 8.10174 76.5898 8.55423 76.9438 9.11609C77.1893 9.50537 77.401 9.93779 77.5769 10.4093H75.0223ZM72.0473 9.11609C72.4012 8.55323 72.8205 8.10074 73.2577 7.80777C73.4916 7.65126 73.7286 7.53889 73.9688 7.47267V10.4093H71.4131C71.5793 9.95964 71.7925 9.52649 72.0473 9.11609ZM73.9688 11.4127V13.4193H70.82C70.8505 12.727 70.9464 12.0548 71.1044 11.4127H73.9688ZM68.1726 16.4292C67.8927 15.7904 67.7223 15.1129 67.668 14.4226H69.7654C69.7949 15.1219 69.8834 15.7951 70.0246 16.4292H68.1726ZM70.82 14.4226H73.9688V16.4292H71.1044C70.9464 15.7871 70.8505 15.1149 70.82 14.4226ZM73.9688 17.4325V20.3692C73.7138 20.296 73.4735 20.1827 73.2577 20.0341C72.8205 19.7401 72.4012 19.2876 72.0473 18.7258C71.7917 18.3156 71.5793 17.8824 71.4131 17.4325H73.9688ZM76.9449 18.7258C76.5909 19.2886 76.1716 19.7411 75.7344 20.0341C75.5185 20.1825 75.2782 20.2958 75.0233 20.3692V17.4325H77.579C77.4021 17.9041 77.1903 18.3365 76.9449 18.7258ZM75.0223 16.4292V14.4226H78.1711C78.1405 15.1149 78.0447 15.7871 77.8867 16.4292H75.0223ZM79.2256 13.4193C79.1986 12.7447 79.1119 12.0734 78.9665 11.4127H80.8185C81.0998 12.0538 81.2683 12.726 81.3231 13.4193H79.2256ZM80.2675 10.4093H78.6894C78.3828 9.48831 77.9593 8.68065 77.4495 8.03552C78.1505 8.35455 78.789 8.7855 79.3373 9.30972C79.6913 9.64684 80.002 10.014 80.2675 10.4093ZM69.6538 9.30972C70.2025 8.78596 70.8409 8.35506 71.5416 8.03552C71.0328 8.68065 70.6082 9.48831 70.3017 10.4093H68.7236C68.989 10.014 69.2998 9.64583 69.6538 9.30972ZM68.7236 17.4325H70.3017C70.6082 18.3535 71.0317 19.1612 71.5416 19.8063C70.8406 19.4873 70.2021 19.0563 69.6538 18.5321C69.3029 18.1987 68.991 17.83 68.7236 17.4325ZM79.3373 18.5321C78.7886 19.0559 78.1502 19.4868 77.4495 19.8063C77.9583 19.1612 78.3828 18.3535 78.6894 17.4325H80.2675C80.0004 17.8302 79.6885 18.1989 79.3373 18.5321Z" fill="#4F23FF"/>
</svg>
