<svg width="24" height="24" viewBox="0 0 24 24" fill="none" xmlns="http://www.w3.org/2000/svg">
<g clip-path="url(#clip0_103_50)">
<path d="M23.9995 1.76471V22.2353C23.9995 22.7033 23.8136 23.1522 23.4826 23.4831C23.1517 23.8141 22.7028 24 22.2348 24H1.76422C1.29619 24 0.847329 23.8141 0.516382 23.4831C0.185436 23.1522 -0.000488281 22.7033 -0.000488281 22.2353L-0.000488281 1.76471C-0.000488281 1.29668 0.185436 0.847817 0.516382 0.51687C0.847329 0.185924 1.29619 0 1.76422 0L22.2348 0C22.7028 0 23.1517 0.185924 23.4826 0.51687C23.8136 0.847817 23.9995 1.29668 23.9995 1.76471ZM7.05834 9.17647H3.52892V20.4706H7.05834V9.17647ZM7.37598 5.29412C7.37784 5.02715 7.3271 4.76242 7.22665 4.51506C7.1262 4.2677 6.97801 4.04255 6.79054 3.85246C6.60308 3.66237 6.38001 3.51107 6.13406 3.4072C5.88812 3.30332 5.62413 3.24891 5.35716 3.24706H5.29363C4.75072 3.24706 4.23004 3.46273 3.84614 3.84663C3.46224 4.23053 3.24657 4.7512 3.24657 5.29412C3.24657 5.83703 3.46224 6.35771 3.84614 6.74161C4.23004 7.1255 4.75072 7.34118 5.29363 7.34118C5.56062 7.34774 5.82629 7.30164 6.07545 7.2055C6.32462 7.10936 6.5524 6.96506 6.74578 6.78086C6.93916 6.59666 7.09435 6.37616 7.20248 6.13196C7.31062 5.88775 7.36957 5.62464 7.37598 5.35765V5.29412ZM20.4701 13.6094C20.4701 10.2141 18.3101 8.89412 16.1642 8.89412C15.4616 8.85894 14.7621 9.00858 14.1353 9.32814C13.5086 9.64769 12.9766 10.126 12.5925 10.7153H12.4936V9.17647H9.17598V20.4706H12.7054V14.4635C12.6544 13.8483 12.8482 13.2378 13.2447 12.7646C13.6412 12.2915 14.2084 11.9939 14.823 11.9365H14.9572C16.0795 11.9365 16.9125 12.6424 16.9125 14.4212V20.4706H20.4419L20.4701 13.6094Z" fill="#626262"/>
</g>
<defs>
<clipPath id="clip0_103_50">
<rect width="24" height="24" fill="white"/>
</clipPath>
</defs>
</svg>
