<svg width="45" height="45" viewBox="0 0 45 45" fill="none" xmlns="http://www.w3.org/2000/svg">
<path d="M29.6036 36.9442C30.3082 35.7709 30.9153 34.4688 31.4222 33.0505L31.4939 32.85H31.281H24.003H23.853V33V41.781V41.9831L24.0464 41.9246C24.7878 41.7003 25.4869 41.3545 26.115 40.9012C27.3809 40.0103 28.5879 38.64 29.6036 36.9442ZM29.6036 36.9442L29.475 36.867L29.6037 36.9441C29.6037 36.9441 29.6036 36.9442 29.6036 36.9442ZM35.0853 29.9689L35.0469 30.15H35.232H40.506H40.6059L40.6444 30.0578C41.4478 28.1328 41.9367 26.0913 42.0926 24.0112L42.1047 23.85H41.943H35.97H35.8257L35.8201 23.9942C35.7394 26.0768 35.4855 28.0813 35.0853 29.9689ZM9.91479 15.0309L9.95283 14.85H9.768H4.494H4.39406L4.35557 14.9422C3.55222 16.8672 3.06328 18.9087 2.90742 20.9888L2.89534 21.15H3.057H9.03H9.17449L9.17989 21.0056C9.25515 18.9968 9.501 16.998 9.91479 15.0309ZM32.303 14.9658L32.2759 14.85H32.157H24H23.85V15V21V21.15H24H32.967H33.1234L33.1169 20.9937C33.0295 18.9146 32.7553 16.8953 32.303 14.9658ZM23.85 12V12.15H24H31.275H31.4875L31.4163 11.9498C30.9123 10.5313 30.3052 9.22914 29.6006 8.05578C28.5847 6.3627 27.3776 4.99233 26.1115 4.09846L26.025 4.221L26.1115 4.09845C25.4368 3.62222 24.7439 3.27818 24.0417 3.07492L23.85 3.01942V3.219V12ZM15.3993 8.05593L15.3989 8.05665C14.6684 9.29206 14.0574 10.5961 13.5805 11.9502L13.5101 12.15H13.722H21H21.15V12V3.219V3.01942L20.9583 3.07492C20.2559 3.27823 19.5661 3.62231 18.8888 4.09827L18.8887 4.09832C17.6224 4.98928 16.4152 6.3598 15.3993 8.05593ZM21.15 15V14.85H21H12.843H12.7241L12.697 14.9658C12.2447 16.8953 11.9705 18.9146 11.8831 20.9937L11.8766 21.15H12.033H21H21.15V21V15ZM4.35557 30.0578L4.39406 30.15H4.494H9.768H9.95314L9.91474 29.9689C9.51456 28.0815 9.26355 26.0769 9.17988 23.994L9.1741 23.85H9.03H3.057H2.89534L2.90742 24.0112C3.06328 26.0913 3.55222 28.1328 4.35557 30.0578ZM12.033 23.85H11.8766L11.8831 24.0063C11.9705 26.0854 12.2447 28.1047 12.697 30.0342L12.7241 30.15H12.843H21H21.15V30V24V23.85H21H12.033ZM21.15 33V32.85H21H13.722H13.5102L13.5805 33.0498C14.057 34.4044 14.6661 35.7086 15.399 36.9436L15.3994 36.9442C16.415 38.637 17.622 40.0072 18.8878 40.901C19.5156 41.355 20.2149 41.701 20.9567 41.9246L21.15 41.9829V41.781V33ZM23.85 30V30.15H24H32.157H32.2759L32.303 30.0342C32.7553 28.1047 33.0295 26.0854 33.1169 24.0063L33.1234 23.85H32.967H24H23.85V24V30ZM35.8201 21.0057L35.8256 21.15H35.97H41.943H42.1047L42.0926 20.9887C41.9354 18.8998 41.4516 16.8741 40.6444 14.9422L40.6059 14.85H40.506H35.232H35.0473L35.0852 15.0308C35.4975 16.9982 35.7434 18.997 35.8201 21.0057ZM38.937 12.15H39.211L39.0634 11.9192C38.3014 10.7279 37.4096 9.62144 36.3941 8.60593C34.8206 7.02643 32.9883 5.72792 30.9767 4.76666L30.7922 4.99221C32.2323 6.90547 33.4312 9.30465 34.3 12.0453L34.3332 12.15H34.443H38.937ZM14.2079 4.99209L14.0232 4.76671C12.0125 5.72948 10.1806 7.02778 8.60597 8.6059C7.59029 9.61857 6.69847 10.728 5.93664 11.9192L5.789 12.15H6.063H10.557H10.6668L10.7 12.0453C11.5687 9.30476 12.7706 6.90549 14.2079 4.99209ZM6.063 32.85H5.78876L5.9367 33.0809C6.70395 34.2785 7.59887 35.3893 8.60573 36.3939C10.1793 37.9735 12.0116 39.272 14.0233 40.2333L14.2078 40.0078C12.7677 38.0945 11.5688 35.6954 10.7 32.9547L10.6668 32.85H10.557H6.063ZM30.7921 40.0079L30.9768 40.2333C32.9875 39.2705 34.8194 37.9722 36.394 36.3941C37.4017 35.3901 38.2968 34.2791 39.0634 33.0808L39.211 32.85H38.937H34.443H34.3332L34.3 32.9547C33.4313 35.6952 32.2294 38.0945 30.7921 40.0079ZM6.69616 6.69616C10.8876 2.50473 16.5724 0.15 22.5 0.15C28.4276 0.15 34.1124 2.50473 38.3038 6.69616C42.4953 10.8876 44.85 16.5724 44.85 22.5C44.85 28.4276 42.4953 34.1124 38.3038 38.3038C34.1124 42.4953 28.4276 44.85 22.5 44.85C16.5724 44.85 10.8876 42.4953 6.69616 38.3038C2.50473 34.1124 0.15 28.4276 0.15 22.5C0.15 16.5724 2.50473 10.8876 6.69616 6.69616Z" fill="#4F23FF" stroke="black" stroke-width="0.3"/>
</svg>
