<svg width="79" height="55" viewBox="0 0 79 55" fill="none" xmlns="http://www.w3.org/2000/svg">
<path d="M36.2758 53.9518C48.5655 53.9518 58.1242 51.3725 63.2069 43.8621L66.0138 53.269H78V23.0759H39.8414V33.1656H59.7173C58.6552 38.5518 52.8897 41.2828 40.6 41.2828C26.6414 41.2828 19.0551 37.6414 19.0551 27.4759C19.0551 17.3104 27.3241 13.669 39.9172 13.669C52.8138 13.669 57.8966 16.4 59.2621 19.9655H77.9242C76.938 5.4 58.8069 1 39.9172 1C21.9379 1 0.999939 5.93104 0.999939 27.4759C0.999939 49.0208 19.2827 53.9518 36.2758 53.9518Z" fill="#00EE34" stroke="black" stroke-width="0.712781"/>
</svg>
