<svg width="86" height="21" viewBox="0 0 86 21" fill="none" xmlns="http://www.w3.org/2000/svg">
<path d="M1.57679 3.05176e-05H0V20.1788H1.57679V3.05176e-05Z" fill="black"/>
<path d="M2.92821 0H2.25244V20.1788H2.92821V0Z" fill="black"/>
<path d="M4.73021 0H4.05444V20.1788H4.73021V0Z" fill="black"/>
<path d="M8.10903 0H7.20801V20.1788H8.10903V0Z" fill="black"/>
<path d="M11.0873 0H8.86987V20.1503H11.0873V0Z" fill="black"/>
<path d="M13.3045 0H11.8262V20.1503H13.3045V0Z" fill="black"/>
<path d="M15.8915 0H15.1523V20.1503H15.8915V0Z" fill="black"/>
<path d="M17.3698 0H16.6306V20.1503H17.3698V0Z" fill="black"/>
<path d="M20.6961 0H19.5874V20.1503H20.6961V0Z" fill="black"/>
<path d="M23.5986 0H22.9045V20.1503H23.5986V0Z" fill="black"/>
<path d="M25.6809 0H24.2927V20.1503H25.6809V0Z" fill="black"/>
<path d="M29.8452 0H27.7629V20.1503H29.8452V0Z" fill="black"/>
<path d="M31.2334 0H30.5393V20.1503H31.2334V0Z" fill="black"/>
<path d="M34.7036 0H33.3154V20.1503H34.7036V0Z" fill="black"/>
<path d="M36.092 0H35.3979V20.1503H36.092V0Z" fill="black"/>
<path d="M39.5625 0H38.1743V20.1503H39.5625V0Z" fill="black"/>
<path d="M42.3386 0H41.6445V20.1503H42.3386V0Z" fill="black"/>
<path d="M45.1149 0H43.0327V20.1503H45.1149V0Z" fill="black"/>
<path d="M46.5032 0H45.8091V20.1503H46.5032V0Z" fill="black"/>
<path d="M49.9734 0H48.5852V20.1503H49.9734V0Z" fill="black"/>
<path d="M52.75 0H50.6677V20.1503H52.75V0Z" fill="black"/>
<path d="M54.1382 0H53.4441V20.1503H54.1382V0Z" fill="black"/>
<path d="M55.5259 0H54.8318V20.1503H55.5259V0Z" fill="black"/>
<path d="M58.9963 0H57.6082V20.1503H58.9963V0Z" fill="black"/>
<path d="M61.7727 0H61.0786V20.1503H61.7727V0Z" fill="black"/>
<path d="M64.5491 0H63.855V20.1503H64.5491V0Z" fill="black"/>
<path d="M66.6313 0H65.2432V20.1503H66.6313V0Z" fill="black"/>
<path d="M69.4077 0H68.7136V20.1503H69.4077V0Z" fill="black"/>
<path d="M72.8779 0H72.1838V20.1503H72.8779V0Z" fill="black"/>
<path d="M74.9604 0H73.5723V20.1503H74.9604V0Z" fill="black"/>
<path d="M77.7365 0H76.3484V20.1503H77.7365V0Z" fill="black"/>
<path d="M81.9011 0H79.8188V20.1503H81.9011V0Z" fill="black"/>
<path d="M83.2893 0H82.5952V20.1503H83.2893V0Z" fill="black"/>
<path d="M85.3715 0H83.9834V20.1503H85.3715V0Z" fill="black"/>
</svg>
