<svg width="25" height="22" viewBox="0 0 25 22" fill="none" xmlns="http://www.w3.org/2000/svg">
<path d="M25 3.25731C24.0806 3.6539 23.0802 3.93932 22.0496 4.05048C23.1196 3.41485 23.9208 2.41066 24.303 1.2263C23.299 1.82356 22.1991 2.24236 21.0522 2.46414C20.5728 1.95166 19.993 1.54339 19.3489 1.26478C18.7049 0.986174 18.0104 0.843189 17.3086 0.844739C14.4694 0.844739 12.186 3.14615 12.186 5.97033C12.186 6.36691 12.2341 6.7635 12.3122 7.14507C8.06093 6.92274 4.26932 4.89173 1.74859 1.78213C1.28928 2.56663 1.04859 3.45989 1.05156 4.36896C1.05156 6.14759 1.95589 7.71591 3.33494 8.63828C2.52225 8.60627 1.72859 8.38289 1.01851 7.98631V8.0494C1.01851 10.5401 2.77911 12.6041 5.12559 13.0788C4.68501 13.1933 4.23178 13.2518 3.77659 13.2531C3.4431 13.2531 3.12763 13.2201 2.80916 13.175C3.45812 15.206 5.34792 16.6812 7.59825 16.7293C5.83764 18.1083 3.63238 18.9195 1.23783 18.9195C0.808196 18.9195 0.411609 18.9045 0 18.8564C2.27136 20.3136 4.96635 21.1548 7.86865 21.1548C17.2906 21.1548 22.4462 13.3492 22.4462 6.57422C22.4462 6.35189 22.4462 6.12956 22.4312 5.90723C23.4287 5.17715 24.303 4.27281 25 3.25731Z" fill="#626262"/>
</svg>
